<svg xmlns="http://www.w3.org/2000/svg" version="1.1" xmlns:xlink="http://www.w3.org/1999/xlink" xmlns:svgjs="http://svgjs.dev/svgjs" width="2000" height="363" viewBox="0 0 2000 363"><g transform="matrix(1,0,0,1,-1.2121212121212466,-0.15441316739580202)"><svg viewBox="0 0 396 72" data-background-color="#dee5ed" preserveAspectRatio="xMidYMid meet" height="363" width="2000" xmlns="http://www.w3.org/2000/svg" xmlns:xlink="http://www.w3.org/1999/xlink"><g id="tight-bounds" transform="matrix(1,0,0,1,0.2400000000000091,0.030627405103302863)"><svg viewBox="0 0 395.52 71.93874518979342" height="71.93874518979342" width="395.52"><g><svg viewBox="0 0 501.6437409195755 91.24095179527734" height="71.93874518979342" width="395.52"><g transform="matrix(1,0,0,1,106.12374091957552,14.099293896295492)"><svg viewBox="0 0 395.52 63.042364002686355" height="63.042364002686355" width="395.52"><g id="textblocktransform"><svg viewBox="0 0 395.52 63.042364002686355" height="63.042364002686355" width="395.52" id="textblock"><g><svg viewBox="0 0 395.52 63.042364002686355" height="63.042364002686355" width="395.52"><g transform="matrix(1,0,0,1,0,0)"><svg width="395.52" viewBox="3.7 -35 223.34 35.6" height="63.042364002686355" data-palette-color="#2b55ea"><path d="M18.6-34.4Q36.65-34.4 36.65-17.2L36.65-17.2Q36.65 0 18.6 0L18.6 0 3.7 0 3.7-34.4 18.6-34.4ZM14.75-26.15L14.75-8.25 18.4-8.25Q25.35-8.25 25.35-15.7L25.35-15.7 25.35-18.7Q25.35-26.15 18.4-26.15L18.4-26.15 14.75-26.15ZM75.2 0L63.5 0 62.05-4.85 50-4.85 48.55 0 37.25 0 49.8-34.4 62.65-34.4 75.2 0ZM55.95-24.8L52.3-12.55 59.75-12.55 56.15-24.8 55.95-24.8ZM98.75 0L85.95 0 73.75-34.4 85.55-34.4 92.45-11.4 92.65-11.4 99.6-34.4 110.9-34.4 98.75 0ZM127.04 0L115.99 0 115.99-34.4 127.04-34.4 127.04 0ZM169.19 0L159.54 0 145.09-16.7 145.09 0 134.94 0 134.94-34.4 144.59-34.4 159.04-17.45 159.04-34.4 169.19-34.4 169.19 0ZM192.99-35Q200.64-35 205.09-31.18 209.54-27.35 209.54-20.25L209.54-20.25 198.99-20.25Q198.99-23.25 197.41-25 195.84-26.75 192.94-26.75L192.94-26.75Q189.59-26.75 188.01-24.65 186.44-22.55 186.44-18.8L186.44-18.8 186.44-15.6Q186.44-11.9 188.01-9.78 189.59-7.65 192.84-7.65L192.84-7.65Q196.04-7.65 197.69-9.3 199.34-10.95 199.34-13.95L199.34-13.95 209.54-13.95Q209.54-6.9 205.21-3.15 200.89 0.6 192.99 0.6L192.99 0.6Q184.19 0.6 179.66-3.9 175.14-8.4 175.14-17.2L175.14-17.2Q175.14-26 179.66-30.5 184.19-35 192.99-35L192.99-35ZM227.04 0L215.99 0 215.99-34.4 227.04-34.4 227.04 0Z" opacity="1" transform="matrix(1,0,0,1,0,0)" fill="#2b55ea" class="wordmark-text-0" data-fill-palette-color="primary" id="text-0"></path></svg></g></svg></g></svg></g></svg></g><g><svg viewBox="0 0 91.24095179527734 91.24095179527734" height="91.24095179527734" width="91.24095179527734"><g><svg></svg></g><g id="icon-0"><svg viewBox="0 0 91.24095179527734 91.24095179527734" height="91.24095179527734" width="91.24095179527734"><g><rect width="82.96168024348367" height="82.96168024348367" x="4.139635775896835" y="4.139635775896835" fill="#2b55ea" data-fill-palette-color="accent"></rect><rect width="82.96168024348367" height="82.96168024348367" x="8.279271551793677" y="-7.105427357601002e-15" fill="#2b55ea" opacity="0.5" data-fill-palette-color="accent"></rect></g><g transform="matrix(1,0,0,1,11.82753078827669,11.82753078827669)"><svg viewBox="0 0 67.58589021872396 67.58589021872396" height="67.58589021872396" width="67.58589021872396"><g><svg xmlns="http://www.w3.org/2000/svg" xmlns:xlink="http://www.w3.org/1999/xlink" version="1.1" x="0" y="0" viewBox="2 2 60 60" style="enable-background:new 0 0 64 64;" xml:space="preserve" height="67.58589021872396" width="67.58589021872396" class="icon-dxe-0" data-fill-palette-color="quaternary" id="dxe-0"><path d="M16 26A10 10 0 0 0 18.609 25.643L18.629 25.64 18.669 25.627A10 10 0 0 0 19.516 25.35C19.725 25.271 19.932 25.187 20.134 25.095 20.197 25.066 20.259 25.035 20.322 25.004 20.52 24.909 20.716 24.812 20.906 24.704 20.946 24.681 20.984 24.655 21.024 24.632 21.443 24.387 21.844 24.116 22.221 23.815L22.264 23.783C22.411 23.665 22.55 23.538 22.69 23.411 22.768 23.341 22.847 23.272 22.923 23.2 23.053 23.075 23.177 22.945 23.3 22.813 23.375 22.732 23.45 22.652 23.522 22.569 23.641 22.433 23.757 22.294 23.869 22.151 23.934 22.068 23.995 21.984 24.057 21.899 24.168 21.748 24.278 21.596 24.381 21.439 24.426 21.37 24.467 21.297 24.51 21.227A10 10 0 0 0 25.357 19.499C25.401 19.381 25.447 19.263 25.487 19.143 25.537 18.994 25.58 18.842 25.623 18.69A9.6 9.6 0 0 0 25.911 17.275C25.926 17.16 25.944 17.047 25.954 16.931 25.982 16.624 26 16.314 26 16 26 10.486 21.514 6 16 6 15.607 6 15.222 6.029 14.841 6.073 14.737 6.085 14.635 6.105 14.532 6.12A10 10 0 0 0 13.349 6.368 10 10 0 0 0 12.565 6.621C12.457 6.661 12.347 6.697 12.24 6.74A10 10 0 0 0 11.253 7.201C11.239 7.209 11.224 7.214 11.21 7.221L11.209 7.222C11.152 7.253 11.102 7.293 11.046 7.325 10.786 7.474 10.533 7.632 10.288 7.803 10.15 7.899 10.019 8.001 9.887 8.103 9.73 8.225 9.576 8.352 9.426 8.483 9.285 8.607 9.145 8.73 9.011 8.86S8.753 9.129 8.628 9.267A10 10 0 0 0 8.066 9.937 10 10 0 0 0 7.667 10.484C7.58 10.616 7.502 10.753 7.421 10.889A10 10 0 0 0 6.911 11.854C6.775 12.151 6.654 12.454 6.547 12.765 6.534 12.803 6.518 12.84 6.505 12.878A10 10 0 0 0 6.034 15.318L6.032 15.336 6.033 15.344C6.019 15.562 6 15.778 6 16 6 21.514 10.486 26 16 26M8.591 12.995C8.649 12.849 8.718 12.709 8.785 12.568 8.833 12.467 8.879 12.363 8.931 12.264 8.979 12.173 9.032 12.087 9.083 11.998 9.166 11.856 9.248 11.713 9.339 11.576 9.374 11.524 9.412 11.474 9.448 11.422 9.562 11.259 9.68 11.098 9.805 10.944L9.888 10.847C10.026 10.684 10.169 10.525 10.319 10.373L10.408 10.287A8 8 0 0 1 10.874 9.864C10.917 9.828 10.963 9.794 11.007 9.758 11.11 9.675 11.218 9.598 11.325 9.52L12.229 11.176 14.25 14.88 8.155 14.473A8 8 0 0 1 8.545 13.118C8.561 13.078 8.574 13.036 8.591 12.995M8.024 16.47L15.223 16.95 17.122 23.912C16.754 23.964 16.382 24 16 24 11.748 24 8.269 20.662 8.024 16.47M24 16A8 8 0 0 1 23.882 17.32 8 8 0 0 1 23.178 19.51 8 8 0 0 1 21.957 21.321L21.871 21.416A8 8 0 0 1 20.156 22.822L20.074 22.872A8 8 0 0 1 19.052 23.387L16.966 15.737A1 1 0 0 0 16.879 15.521L13.082 8.559A7 7 0 0 1 13.373 8.452C13.485 8.413 13.597 8.371 13.711 8.337 13.836 8.3 13.964 8.27 14.091 8.239 14.214 8.209 14.337 8.175 14.461 8.151 14.601 8.124 14.744 8.106 14.886 8.086 14.998 8.07 15.11 8.049 15.223 8.038 15.478 8.015 15.737 8 16 8 20.411 8 24 11.589 24 16" fill="#dee5ed" data-fill-palette-color="quaternary"></path><path d="M57 2H7C4.243 2 2 4.243 2 7V45C2 47.757 4.243 50 7 50H29V54H21C18.243 54 16 56.243 16 59V61A1 1 0 0 0 17 62H47A1 1 0 0 0 48 61V59C48 56.243 45.757 54 43 54H35V50H57C59.757 50 62 47.757 62 45V7C62 4.243 59.757 2 57 2M7 4H57C58.654 4 60 5.346 60 7V42H4V7C4 5.346 5.346 4 7 4M46 59V60H18V59C18 57.346 19.346 56 21 56H43C44.654 56 46 57.346 46 59M33 54H31V50H33zM60 45C60 46.654 58.654 48 57 48H7C5.346 48 4 46.654 4 45V44H60z" fill="#dee5ed" data-fill-palette-color="quaternary"></path><path d="M29 40H58V38H30V6H28V39A1 1 0 0 0 29 40" fill="#dee5ed" data-fill-palette-color="quaternary"></path><path d="M7 40H25A1 1 0 0 0 26 39V29A1 1 0 0 0 25 28H7A1 1 0 0 0 6 29V39A1 1 0 0 0 7 40M8 30H24V38H8z" fill="#dee5ed" data-fill-palette-color="quaternary"></path><path d="M36.274 29.688L39.293 32.707A1 1 0 0 0 40.6 32.8L44.6 29.8C44.772 29.671 44.898 29.489 44.959 29.282L48.784 16.277 51.016 28.184A0.998 0.998 0 0 0 52.706 28.706L57.706 23.706 56.292 22.292 52.632 25.951 49.982 11.815A1 1 0 0 0 48.039 11.717L43.133 28.399 40.092 30.679 36.705 27.292A1 1 0 0 0 35.104 27.552L31.104 35.552 32.893 36.447z" fill="#dee5ed" data-fill-palette-color="quaternary"></path></svg></g></svg></g></svg></g></svg></g></svg></g><defs></defs></svg><rect width="395.52" height="71.93874518979342" fill="none" stroke="none" visibility="hidden"></rect></g></svg></g></svg>